<?xml version="1.0" encoding="UTF-8" standalone="no"?>
<!-- Created with Inkscape (http://www.inkscape.org/) -->

<svg
   xmlns:dc="http://purl.org/dc/elements/1.1/"
   xmlns:cc="http://creativecommons.org/ns#"
   xmlns:rdf="http://www.w3.org/1999/02/22-rdf-syntax-ns#"
   xmlns:svg="http://www.w3.org/2000/svg"
   xmlns="http://www.w3.org/2000/svg"
   xmlns:sodipodi="http://sodipodi.sourceforge.net/DTD/sodipodi-0.dtd"
   xmlns:inkscape="http://www.inkscape.org/namespaces/inkscape"
   width="68.25"
   height="211.67891"
   id="svg5925"
   version="1.1"
   inkscape:version="0.48.4 r9943 custom"
   sodipodi:docname="New document 20">
  <defs
     id="defs5927">
    <inkscape:path-effect
       is_visible="true"
       id="path-effect4930"
       effect="spiro" />
    <inkscape:path-effect
       is_visible="true"
       id="path-effect4922"
       effect="spiro" />
    <inkscape:path-effect
       effect="spiro"
       id="path-effect4918"
       is_visible="true" />
    <inkscape:path-effect
       effect="spiro"
       id="path-effect4932"
       is_visible="true" />
    <inkscape:path-effect
       effect="spiro"
       id="path-effect4934"
       is_visible="true" />
    <inkscape:path-effect
       is_visible="true"
       id="path-effect4910"
       effect="spiro" />
    <inkscape:path-effect
       is_visible="true"
       id="path-effect4936"
       effect="spiro" />
    <inkscape:path-effect
       effect="spiro"
       id="path-effect4360"
       is_visible="true" />
    <inkscape:path-effect
       is_visible="true"
       id="path-effect5895-6"
       effect="spiro" />
    <inkscape:path-effect
       is_visible="true"
       id="path-effect5887-4"
       effect="spiro" />
    <inkscape:path-effect
       is_visible="true"
       id="path-effect5883-49"
       effect="spiro" />
  </defs>
  <sodipodi:namedview
     id="base"
     pagecolor="#ffffff"
     bordercolor="#666666"
     borderopacity="1.0"
     inkscape:pageopacity="0.0"
     inkscape:pageshadow="2"
     inkscape:zoom="0.35"
     inkscape:cx="-225.0625"
     inkscape:cy="-11.799683"
     inkscape:document-units="px"
     inkscape:current-layer="layer1"
     showgrid="false"
     fit-margin-top="0"
     fit-margin-left="0"
     fit-margin-right="0"
     fit-margin-bottom="0"
     inkscape:window-width="450"
     inkscape:window-height="405"
     inkscape:window-x="0"
     inkscape:window-y="22"
     inkscape:window-maximized="0" />
  <metadata
     id="metadata5930">
    <rdf:RDF>
      <cc:Work
         rdf:about="">
        <dc:format>image/svg+xml</dc:format>
        <dc:type
           rdf:resource="http://purl.org/dc/dcmitype/StillImage" />
        <dc:title></dc:title>
      </cc:Work>
    </rdf:RDF>
  </metadata>
  <g
     inkscape:label="Layer 1"
     inkscape:groupmode="layer"
     id="layer1"
     transform="translate(-600.0625,-308.88359)">
    <path
       sodipodi:type="arc"
       style="fill:none;stroke:#000000;stroke-width:2.77492929;stroke-miterlimit:4;stroke-dasharray:none"
       id="path5371-6"
       sodipodi:cx="133.57143"
       sodipodi:cy="168.57143"
       sodipodi:rx="25"
       sodipodi:ry="25"
       d="m 158.57143,168.57143 c 0,13.80712 -11.19288,25 -25,25 -13.80712,0 -25,-11.19288 -25,-25 0,-13.80712 11.19288,-25 25,-25 13.80712,0 25,11.19288 25,25 z"
       transform="matrix(0.94390601,0,0,1.1034531,505.98458,151.98635)" />
    <path
       style="fill:none;stroke:#000000;stroke-width:2.83171797;stroke-linecap:butt;stroke-linejoin:miter;stroke-miterlimit:4;stroke-opacity:1;stroke-dasharray:none"
       d="m 630.89165,365.31869 c -0.94639,10.98524 -1.68417,21.98846 -2.21282,33.00171 -0.55248,11.50964 -0.86875,23.13877 1.25933,34.46345 1.53384,8.1624 4.31354,16.03175 7.15116,23.83722 7.75439,21.33007 16.02114,42.47388 24.79072,63.40703"
       id="path5881-4"
       inkscape:path-effect="#path-effect5883-49"
       inkscape:original-d="m 630.89165,365.31869 c 0,0 -1.92441,13.67974 -2.21282,33.00171 -0.19473,13.04557 1.18083,26.38389 1.25933,34.46345 0.12031,12.38356 4.21561,11.80602 7.15116,23.83722 5.20562,21.33485 733899022.91068,63.40703 24.79072,63.40703"
       inkscape:connector-curvature="0"
       sodipodi:nodetypes="csssc" />
    <path
       style="fill:none;stroke:#000000;stroke-width:2.83171797;stroke-linecap:butt;stroke-linejoin:miter;stroke-miterlimit:4;stroke-opacity:1;stroke-dasharray:none"
       d="m 630.41491,435.16757 c -1.77689,15.08566 -4.48529,30.06154 -8.10466,44.81398 -3.24771,13.23757 -7.22869,26.2952 -11.91862,39.09306"
       id="path5885-3"
       inkscape:path-effect="#path-effect5887-4"
       inkscape:original-d="m 630.41491,435.16757 c 0,0 -4.53429,30.05951 -8.10466,44.81398 -3.20414,13.24102 -11.91862,39.09306 -11.91862,39.09306"
       inkscape:connector-curvature="0"
       sodipodi:nodetypes="csc" />
    <path
       style="fill:none;stroke:#000000;stroke-width:2.83171797;stroke-linecap:butt;stroke-linejoin:round;stroke-miterlimit:4;stroke-opacity:1;stroke-dasharray:none"
       d="m 616.44166,434.16988 c 2.42299,-12.09141 3.4206,-24.46781 2.96561,-36.7912 -0.19407,-5.25638 -0.61926,-10.71602 1.34854,-15.59403 1.29978,-3.22205 3.62848,-6.01989 6.56109,-7.8829 3.3517,-0.74683 7.04916,0.29917 9.5129,2.69116 2.14938,2.08678 3.30159,5.00992 3.90803,7.94364 0.60643,2.93372 0.72616,5.9445 1.15,8.91011 0.87708,6.1369 3.0768,12.08139 6.40583,17.31096 3.94906,-5.20438 6.7116,-11.30367 8.01889,-17.70458 0.31445,-1.53964 0.55194,-3.11571 1.19939,-4.54755 0.32372,-0.71593 0.7507,-1.39099 1.30574,-1.94712 0.55503,-0.55613 1.2423,-0.99036 2.00136,-1.19326 1.22791,-0.32822 2.54641,-0.0395 3.79232,-0.29089 1.01029,-0.20385 1.94295,-0.77241 2.58699,-1.57706"
       id="path5893-9"
       inkscape:path-effect="#path-effect5895-6"
       inkscape:original-d="m 616.44166,434.16988 c 0,0 -4.0156,-21.6222 2.96561,-36.7912 3.42836,-7.44924 -2.34518,-12.16188 1.34854,-15.59403 3.74165,-3.47669 6.56109,-7.8829 6.56109,-7.8829 0,0 3.94566,-0.43413 9.5129,2.69116 1.99376,1.11924 3.63702,10.43798 5.05803,16.85375 1.48811,6.71876 6.40583,17.31096 6.40583,17.31096 0,0 5.19813,-15.12667 8.01889,-17.70458 3.26414,-2.9831 0.99383,-4.68443 4.50649,-7.68793 1.48898,-1.27314 -0.21449,0.61322 3.79232,-0.29089 5.68379,-1.28253 2.58699,-1.57706 2.58699,-1.57706"
       inkscape:connector-curvature="0"
       sodipodi:nodetypes="csscsscsssc" />
    <path
       style="fill:none;stroke:#000000;stroke-width:2.83200002;stroke-linecap:butt;stroke-linejoin:miter;stroke-miterlimit:4;stroke-opacity:1;stroke-dasharray:none"
       d="m 635.04746,312.36342 c -3.71315,-1.50533 -7.87309,-1.88786 -11.7985,-1.08493 -3.92541,0.80292 -7.60102,2.78818 -10.42486,5.63062 -2.61774,2.63499 -4.48335,5.95911 -5.67708,9.47632 -1.19373,3.51722 -1.73525,7.2298 -1.92316,10.93931 -0.37581,7.41902 0.64013,14.84921 0.39918,22.27383 -0.23513,7.2451 -1.67754,14.4496 -4.24982,21.22678"
       id="path4358"
       inkscape:path-effect="#path-effect4360"
       inkscape:original-d="m 635.04746,312.36342 c 0,0 -16.09282,-1.01537 -22.22336,4.54569 -10.51764,9.54062 -2.86128,29.16871 -7.20106,42.68946 -1.08173,3.37019 -4.24982,21.22678 -4.24982,21.22678"
       inkscape:connector-curvature="0"
       sodipodi:nodetypes="cssc" />
    <path
       sodipodi:nodetypes="cssc"
       inkscape:connector-curvature="0"
       inkscape:original-d="m 644.13883,316.90911 c 0,0 -18.6182,-3.03568 -24.74875,2.52538 -10.51763,9.54062 -5.78712,33.9954 -10.1269,47.51613 -1.08172,3.37019 -3.5968,18.81348 -3.5968,18.81348"
       inkscape:path-effect="#path-effect4936"
       id="path4906"
       d="m 644.13883,316.90911 c -3.86367,-2.12654 -8.38087,-3.04565 -12.76832,-2.59795 -4.38744,0.4477 -8.62591,2.26024 -11.98043,5.12333 -3.18373,2.71732 -5.54063,6.32392 -7.10624,10.20578 -1.5656,3.88187 -2.3655,8.03927 -2.73628,12.2085 -0.74155,8.33846 0.202,16.74462 -0.28438,25.10185 -0.37202,6.39216 -1.58464,12.73489 -3.5968,18.81348"
       style="fill:none;stroke:#000000;stroke-width:2.83200002;stroke-linecap:butt;stroke-linejoin:miter;stroke-miterlimit:4;stroke-opacity:1;stroke-dasharray:none" />
    <path
       style="fill:none;stroke:#000000;stroke-width:2.83200002;stroke-linecap:butt;stroke-linejoin:miter;stroke-miterlimit:4;stroke-opacity:1;stroke-dasharray:none"
       d="m 650.45228,319.93957 c -0.90791,3.10951 -3.30493,5.74765 -6.31346,6.94852 -2.49614,0.99635 -5.25743,1.01958 -7.94485,1.0542 -2.68742,0.0346 -5.45709,0.11182 -7.91428,1.20069 -2.2026,0.97605 -4.00071,2.71069 -5.40718,4.6667 -1.40648,1.956 -2.45571,4.14118 -3.50056,6.31199 -2.12184,4.40841 -4.2569,8.81084 -6.47259,13.17283 -0.85494,1.6831 -1.72185,3.36011 -2.60065,5.03087"
       id="path4908"
       inkscape:path-effect="#path-effect4910"
       inkscape:original-d="m 650.45228,319.93957 c 0,0 -0.18291,1.38746 -6.31346,6.94852 -10.51763,9.54062 -3.69984,-5.07966 -15.85913,2.25489 -3.70171,2.23288 -6.57926,8.96221 -8.90774,10.97869 -1.22577,1.06154 -5.34453,8.9058 -6.47259,13.17283 -1.48462,5.61584 -2.60065,5.03087 -2.60065,5.03087"
       inkscape:connector-curvature="0"
       sodipodi:nodetypes="cssssc" />
    <path
       sodipodi:nodetypes="cssssc"
       inkscape:connector-curvature="0"
       inkscape:original-d="m 643.74579,314.30451 c 0,0 2.36042,2.45888 -3.77013,8.01994 -10.51763,9.54061 -5.90971,-11.66631 -10.24945,1.85443 -0.48742,1.51861 -10.49029,12.48359 -12.87964,14.42756 -2.23592,1.81915 -3.57677,5.87534 -4.70482,10.14237 -1.48463,5.61584 -4.36842,6.79864 -4.36842,6.79864"
       inkscape:path-effect="#path-effect4934"
       id="path4912"
       d="m 643.74579,314.30451 c 0.30787,1.55099 0.10626,3.19882 -0.56646,4.62984 -0.67271,1.43102 -1.81294,2.63761 -3.20367,3.3901 -1.53642,0.83132 -3.31089,1.09776 -5.05178,1.2425 -1.7409,0.14474 -3.50412,0.18348 -5.19767,0.61193 -3.24103,0.81995 -5.99825,3.02911 -8.05248,5.66667 -2.05422,2.63757 -3.48042,5.70101 -4.82716,8.76089 -1.50178,3.41215 -2.93036,6.86374 -4.70482,10.14237 -1.28335,2.37123 -2.74496,4.64595 -4.36842,6.79864"
       style="fill:none;stroke:#000000;stroke-width:2.83200002;stroke-linecap:butt;stroke-linejoin:miter;stroke-miterlimit:4;stroke-opacity:1;stroke-dasharray:none" />
    <path
       style="fill:none;stroke:#000000;stroke-width:2.83200002;stroke-linecap:butt;stroke-linejoin:miter;stroke-miterlimit:4;stroke-opacity:1;stroke-dasharray:none"
       d="m 647.67436,317.16166 c -0.49375,2.91612 -2.49593,5.5345 -5.18075,6.77519 -1.79929,0.83148 -3.81772,1.05645 -5.79901,1.11394 -1.98128,0.0575 -3.9719,-0.0408 -5.94029,0.19208 -3.11335,0.36833 -6.10744,1.57101 -8.69225,3.34508 -2.58482,1.77407 -4.76532,4.10971 -6.47818,6.73549 -2.65046,4.0631 -4.16667,8.75047 -5.46244,13.42537 -3.28766,11.86126 -5.34757,24.06243 -6.13618,36.3456"
       id="path4914"
       inkscape:path-effect="#path-effect4932"
       inkscape:original-d="m 647.67436,317.16166 c 0,0 0.9498,1.21413 -5.18075,6.77519 -10.51763,9.54061 -7.39956,-12.21472 -11.7393,1.30602 -0.48743,1.51861 -12.78108,8.1366 -15.17043,10.08057 -2.23593,1.81915 -4.33439,9.15834 -5.46244,13.42537 -1.48462,5.61584 -6.13618,36.3456 -6.13618,36.3456"
       inkscape:connector-curvature="0"
       sodipodi:nodetypes="cssssc" />
    <path
       sodipodi:nodetypes="csssssc"
       inkscape:connector-curvature="0"
       inkscape:original-d="m 645.90659,313.87866 c 0,0 -1.19305,0.49985 -7.3236,6.06091 -10.51763,9.54061 -5.25671,-11.50044 -9.59645,2.0203 -0.48742,1.51861 -12.78108,8.1366 -15.17043,10.08057 -2.23592,1.81915 -4.33439,9.15834 -5.46244,13.42537 -0.73723,2.78872 4.7152,18.8483 1.49248,26.683 -3.26709,7.94258 -3.08297,14.71336 -3.08297,14.71336"
       inkscape:path-effect="#path-effect4918"
       id="path4916"
       d="m 645.90659,313.87866 c -1.69086,2.74765 -4.30821,4.91373 -7.3236,6.06091 -3.06002,1.16416 -6.40733,1.27971 -9.59645,2.0203 -6.03703,1.40194 -11.46246,5.11448 -15.17043,10.08057 -2.92167,3.91299 -4.80606,8.58628 -5.46244,13.42537 -1.20014,8.84784 1.64293,17.7554 1.49248,26.683 -0.0849,5.04043 -1.13731,10.06282 -3.08297,14.71336"
       style="fill:none;stroke:#000000;stroke-width:2.83200002;stroke-linecap:butt;stroke-linejoin:miter;stroke-miterlimit:4;stroke-opacity:1;stroke-dasharray:none" />
    <path
       style="fill:none;stroke:#000000;stroke-width:2.83200002;stroke-linecap:butt;stroke-linejoin:miter;stroke-miterlimit:4;stroke-opacity:1;stroke-dasharray:none"
       d="m 643.38121,313.62612 c -2.63707,1.64835 -5.55315,2.84909 -8.5863,3.53553 -2.51311,0.56875 -5.10435,0.78755 -7.57613,1.51522 -3.1363,0.9233 -6.01755,2.66363 -8.35567,4.94881 -2.33811,2.28518 -4.13541,5.10712 -5.29954,8.16222 -1.50786,3.95717 -1.95206,8.24707 -1.94737,12.48178 0.005,4.23471 0.44375,8.45585 0.64066,12.68598 0.48487,10.41652 -0.50807,20.90073 -2.93984,31.04102"
       id="path4920"
       inkscape:path-effect="#path-effect4922"
       inkscape:original-d="m 643.38121,313.62612 c 0,0 -2.45575,-2.02553 -8.5863,3.53553 -10.51763,9.54062 -3.23639,-12.00552 -7.57613,1.51522 -0.48743,1.51861 -11.26586,11.16705 -13.65521,13.11103 -2.23592,1.81915 -0.17866,20.90073 -1.30671,25.16776 -1.48462,5.61584 -2.93984,31.04102 -2.93984,31.04102"
       inkscape:connector-curvature="0"
       sodipodi:nodetypes="cssssc" />
    <path
       inkscape:connector-curvature="0"
       inkscape:original-d="m 616.15043,358.65187 c 0,0 -0.20271,9.42842 -0.59788,14.12405 -0.45624,5.42145 -2.29733,14.17292 -2.29733,14.17292"
       inkscape:path-effect="#path-effect4930"
       id="path4928"
       d="m 616.15043,358.65187 c 0.0775,4.71431 -0.12229,9.43315 -0.59788,14.12405 -0.48304,4.76438 -1.25063,9.4999 -2.29733,14.17292"
       style="fill:none;stroke:#000000;stroke-width:2.83200002;stroke-linecap:butt;stroke-linejoin:miter;stroke-miterlimit:4;stroke-opacity:1;stroke-dasharray:none"
       sodipodi:nodetypes="csc" />
  </g>
</svg>
