<?xml version="1.0" encoding="UTF-8" standalone="no"?>
<!-- Created with Inkscape (http://www.inkscape.org/) -->

<svg
   xmlns:dc="http://purl.org/dc/elements/1.1/"
   xmlns:cc="http://creativecommons.org/ns#"
   xmlns:rdf="http://www.w3.org/1999/02/22-rdf-syntax-ns#"
   xmlns:svg="http://www.w3.org/2000/svg"
   xmlns="http://www.w3.org/2000/svg"
   xmlns:sodipodi="http://sodipodi.sourceforge.net/DTD/sodipodi-0.dtd"
   xmlns:inkscape="http://www.inkscape.org/namespaces/inkscape"
   width="217.70435"
   height="158.43329"
   id="svg6107"
   version="1.1"
   inkscape:version="0.48.4 r9943 custom"
   sodipodi:docname="New document 25">
  <defs
     id="defs6109">
    <inkscape:path-effect
       effect="spiro"
       id="path-effect5010"
       is_visible="true" />
    <inkscape:path-effect
       effect="spiro"
       id="path-effect5006"
       is_visible="true" />
    <inkscape:path-effect
       is_visible="true"
       id="path-effect4994"
       effect="spiro" />
    <inkscape:path-effect
       effect="spiro"
       id="path-effect4990"
       is_visible="true" />
    <inkscape:path-effect
       effect="spiro"
       id="path-effect4986"
       is_visible="true" />
    <inkscape:path-effect
       is_visible="true"
       id="path-effect4984"
       effect="spiro" />
    <inkscape:path-effect
       effect="spiro"
       id="path-effect4982"
       is_visible="true" />
    <inkscape:path-effect
       is_visible="true"
       id="path-effect4980"
       effect="spiro" />
    <inkscape:path-effect
       is_visible="true"
       id="path-effect4978"
       effect="spiro" />
    <inkscape:path-effect
       is_visible="true"
       id="path-effect4976"
       effect="spiro" />
    <inkscape:path-effect
       effect="spiro"
       id="path-effect4974"
       is_visible="true" />
    <inkscape:path-effect
       effect="spiro"
       id="path-effect4972"
       is_visible="true" />
    <inkscape:path-effect
       is_visible="true"
       id="path-effect4970"
       effect="spiro" />
    <inkscape:path-effect
       effect="spiro"
       id="path-effect4968"
       is_visible="true" />
    <inkscape:path-effect
       effect="spiro"
       id="path-effect4966"
       is_visible="true" />
    <inkscape:path-effect
       effect="spiro"
       id="path-effect4964"
       is_visible="true" />
  </defs>
  <sodipodi:namedview
     id="base"
     pagecolor="#ffffff"
     bordercolor="#666666"
     borderopacity="1.0"
     inkscape:pageopacity="0.0"
     inkscape:pageshadow="2"
     inkscape:zoom="0.35"
     inkscape:cx="27.360592"
     inkscape:cy="239.19489"
     inkscape:document-units="px"
     inkscape:current-layer="layer1"
     showgrid="false"
     fit-margin-top="0"
     fit-margin-left="0"
     fit-margin-right="0"
     fit-margin-bottom="0"
     inkscape:window-width="450"
     inkscape:window-height="405"
     inkscape:window-x="0"
     inkscape:window-y="22"
     inkscape:window-maximized="0" />
  <metadata
     id="metadata6112">
    <rdf:RDF>
      <cc:Work
         rdf:about="">
        <dc:format>image/svg+xml</dc:format>
        <dc:type
           rdf:resource="http://purl.org/dc/dcmitype/StillImage" />
        <dc:title></dc:title>
      </cc:Work>
    </rdf:RDF>
  </metadata>
  <g
     inkscape:label="Layer 1"
     inkscape:groupmode="layer"
     id="layer1"
     transform="translate(-347.63941,-613.12378)">
    <path
       transform="matrix(-0.67119438,0.66366908,0.77584814,0.78464542,341.90948,513.79216)"
       d="m 158.57143,168.57143 c 0,13.80712 -11.19288,25 -25,25 -13.80712,0 -25,-11.19288 -25,-25 0,-13.80712 11.19288,-25 25,-25 13.80712,0 25,11.19288 25,25 z"
       sodipodi:ry="25"
       sodipodi:rx="25"
       sodipodi:cy="168.57143"
       sodipodi:cx="133.57143"
       id="path4938"
       style="fill:none;stroke:#000000;stroke-width:2.77492929;stroke-miterlimit:4;stroke-dasharray:none"
       sodipodi:type="arc"
       inkscape:transform-center-x="5.1653407"
       inkscape:transform-center-y="1.4768721" />
    <path
       sodipodi:nodetypes="csssc"
       inkscape:connector-curvature="0"
       inkscape:original-d="m 408.4374,738.00484 c 0,0 12.44036,-6.00635 30.75306,-12.17615 12.36415,-4.16566 25.4862,-6.92522 33.20446,-9.31554 11.82982,-3.66366 12.5293,0.41258 24.88249,-0.46256 C 519.18326,714.49872 223913710,698907470 565.22487,720.31376"
       inkscape:path-effect="#path-effect4964"
       id="path4940"
       d="m 408.4374,738.00484 c 10.17273,-4.25286 20.42621,-8.31256 30.75306,-12.17615 10.7923,-4.03773 21.77046,-7.88699 33.20446,-9.31554 8.2412,-1.02965 16.58342,-0.78343 24.88249,-0.46256 22.67893,0.87684 45.33679,2.29844 67.94746,4.26317"
       style="fill:none;stroke:#000000;stroke-width:2.83171797;stroke-linecap:butt;stroke-linejoin:miter;stroke-miterlimit:4;stroke-opacity:1;stroke-dasharray:none" />
    <path
       sodipodi:nodetypes="csc"
       inkscape:connector-curvature="0"
       inkscape:original-d="m 474.81045,716.23989 c 0,0 27.24286,-13.48927 40.20452,-21.39101 11.63209,-7.09121 33.59271,-23.27766 33.59271,-23.27766"
       inkscape:path-effect="#path-effect4966"
       id="path4942"
       d="m 474.81045,716.23989 c 13.82425,-6.29481 27.25974,-13.44323 40.20452,-21.39101 11.61552,-7.13165 22.83595,-14.90671 33.59271,-23.27766"
       style="fill:none;stroke:#000000;stroke-width:2.83171797;stroke-linecap:butt;stroke-linejoin:miter;stroke-miterlimit:4;stroke-opacity:1;stroke-dasharray:none" />
    <path
       sodipodi:nodetypes="csssscsscssssc"
       inkscape:connector-curvature="0"
       inkscape:original-d="m 462.52601,683.53932 c 0,0 4.37167,-1.02462 -1.06708,5.38924 -2.0633,2.43325 -3.79973,1.6496 -7.73131,4.40282 -4.12162,2.88632 -18.03185,15.37056 -20.78812,17.89423 -6.04806,5.53765 -9.77213,7.53813 -11.91368,12.1029 -2.16935,4.62398 -5.50526,8.65333 -5.50526,8.65333 0,0 0.79039,3.88999 5.46525,8.23825 1.67417,1.55722 -7.13279,6.33988 -0.58937,5.7357 6.85243,-0.63275 3.79278,17.99139 3.79278,17.99139 0,0 -17.17176,-5.10939 -25.26903,-8.29983 -10.44201,-4.1143 -16.026,-7.89205 -16.92402,-5.93603 -1.84496,4.01863 -3.65279,0.35535 -5.44136,4.61689 -0.75814,1.80641 0.51854,-0.39136 0.88002,3.70025 0.51276,5.80409 -3.23795,2.94481 -3.23795,2.94481"
       inkscape:path-effect="#path-effect4968"
       id="path4944"
       d="m 462.52601,683.53932 c 0.46692,1.83458 0.0637,3.871 -1.06708,5.38924 -0.89814,1.20588 -2.19579,2.05864 -3.55304,2.70568 -1.35725,0.64704 -2.79357,1.11115 -4.17827,1.69714 -4.24248,1.79538 -7.92668,4.7041 -11.24099,7.90369 -3.31431,3.19959 -6.30804,6.71482 -9.54713,9.99054 -3.9828,4.02784 -8.34552,7.70354 -11.91368,12.1029 -2.15825,2.66102 -4.00949,5.57084 -5.50526,8.65333 1.54849,0.76355 2.88931,1.9433 3.84375,3.382 0.95444,1.43871 1.52007,3.13272 1.6215,4.85625 0.11313,1.92237 -0.3383,3.82644 -0.58937,5.7357 -0.81454,6.19426 0.54705,12.65308 3.79278,17.99139 -8.82314,-1.25379 -17.42084,-4.07778 -25.26903,-8.29983 -2.67624,-1.43972 -5.27252,-3.04347 -8.06464,-4.24311 -2.79212,-1.19965 -5.83497,-1.98961 -8.85938,-1.69292 -1.31003,0.12851 -2.63312,0.47594 -3.69369,1.25562 -0.53028,0.38983 -0.98731,0.88532 -1.3016,1.4636 -0.31428,0.57827 -0.48237,1.24051 -0.44607,1.89767 0.0351,0.63572 0.2558,1.24435 0.46595,1.84535 0.21014,0.60101 0.41424,1.21821 0.41407,1.8549 -2.2e-4,0.82107 -0.36062,1.63569 -0.96805,2.18813 -0.60743,0.55244 -1.45249,0.83414 -2.2699,0.75668"
       style="fill:none;stroke:#000000;stroke-width:2.83171797;stroke-linecap:butt;stroke-linejoin:round;stroke-miterlimit:4;stroke-opacity:1;stroke-dasharray:none" />
    <path
       sodipodi:nodetypes="cssc"
       inkscape:connector-curvature="0"
       inkscape:original-d="m 362.8978,718.57867 c 0,0 10.7294,-12.03701 18.99876,-12.39307 14.187,-0.61089 19.79826,12.90558 32.39076,19.4686 3.13881,1.63592 5.88773,0.92607 5.88773,0.92607"
       inkscape:path-effect="#path-effect4970"
       id="path4946"
       d="m 362.8978,718.57867 c 1.19267,-3.92902 3.80513,-7.41045 7.24419,-9.65378 3.43905,-2.24333 7.6781,-3.2312 11.75457,-2.73929 3.16539,0.38197 6.18218,1.62027 8.92056,3.25333 2.73838,1.63306 5.22106,3.6574 7.64613,5.72734 4.85013,4.13988 9.72785,8.6175 15.82407,10.48793 1.90569,0.5847 3.89457,0.89753 5.88773,0.92607"
       style="fill:none;stroke:#000000;stroke-width:2.83200002;stroke-linecap:butt;stroke-linejoin:miter;stroke-miterlimit:4;stroke-opacity:1;stroke-dasharray:none"
       inkscape:transform-center-x="-3.3281701"
       inkscape:transform-center-y="-16.910223" />
    <path
       style="fill:none;stroke:#000000;stroke-width:2.83200002;stroke-linecap:butt;stroke-linejoin:miter;stroke-miterlimit:4;stroke-opacity:1;stroke-dasharray:none"
       d="m 359.62923,728.20326 c 1.09343,-4.31113 3.61876,-8.24617 7.0825,-11.03614 3.46375,-2.78996 7.8464,-4.41914 12.2915,-4.56917 6.06902,-0.20483 11.92663,2.26088 17.15268,5.35336 5.22605,3.09247 10.05293,6.85295 15.44181,9.65205 2.01302,1.0456 4.09779,1.95303 6.2348,2.71377"
       id="path4948"
       inkscape:path-effect="#path-effect4972"
       inkscape:original-d="m 359.62923,728.20326 c 0,0 11.10464,-15.24925 19.374,-15.60531 14.18699,-0.61088 20.002,8.4424 32.59449,15.00541 3.13881,1.63591 6.2348,2.71377 6.2348,2.71377"
       inkscape:connector-curvature="0"
       sodipodi:nodetypes="cssc"
       inkscape:transform-center-x="-0.52261716"
       inkscape:transform-center-y="-11.779721" />
    <path
       sodipodi:nodetypes="cssssc"
       inkscape:connector-curvature="0"
       inkscape:original-d="m 357.27059,734.79722 c 0,0 2.61226,2.38172 10.88163,2.02564 14.18699,-0.61087 -2.02977,-11.32498 10.56271,-4.76194 1.41434,0.73714 11.773,-4.56217 14.84655,-4.76545 1.61799,-0.10702 10.06215,2.57496 13.86448,4.81602 5.00422,2.94946 5.38652,1.74883 5.38652,1.74883"
       inkscape:path-effect="#path-effect4974"
       id="path4950"
       d="m 357.27059,734.79722 c 3.21325,1.9798 7.17121,2.71658 10.88163,2.02564 3.817,-0.71079 7.19961,-2.82176 10.56271,-4.76194 2.28497,-1.3182 4.61609,-2.57983 7.09413,-3.48429 2.47804,-0.90446 5.11961,-1.44556 7.75242,-1.28116 4.90983,0.30658 9.29918,2.98342 13.86448,4.81602 1.75323,0.70378 3.55424,1.28851 5.38652,1.74883"
       style="fill:none;stroke:#000000;stroke-width:2.83200002;stroke-linecap:butt;stroke-linejoin:miter;stroke-miterlimit:4;stroke-opacity:1;stroke-dasharray:none"
       inkscape:transform-center-x="3.1667197"
       inkscape:transform-center-y="-1.0600556" />
    <path
       style="fill:none;stroke:#000000;stroke-width:2.83200002;stroke-linecap:butt;stroke-linejoin:miter;stroke-miterlimit:4;stroke-opacity:1;stroke-dasharray:none"
       d="m 357.29274,730.86872 c 2.81205,2.37214 6.74924,3.34602 10.34288,2.55834 3.63501,-0.79675 6.66466,-3.19993 9.85048,-5.12312 2.51777,-1.51991 5.21439,-2.77295 8.06321,-3.5034 2.84881,-0.73045 5.8572,-0.92747 8.74254,-0.35815 3.66258,0.72268 6.96811,2.62874 10.47671,3.90407 2.53866,0.92277 5.19655,1.5169 7.88649,1.76291"
       id="path4952"
       inkscape:path-effect="#path-effect4976"
       inkscape:original-d="m 357.29274,730.86872 c 0,0 2.07353,2.91441 10.34288,2.55834 14.187,-0.61089 -2.74201,-11.68616 9.85048,-5.12312 1.41432,0.73714 13.7399,-3.56389 16.80575,-3.86155 2.86899,-0.27853 6.67438,1.663 10.47671,3.90407 5.00424,2.94946 7.88649,1.76291 7.88649,1.76291"
       inkscape:connector-curvature="0"
       sodipodi:nodetypes="cssssc"
       inkscape:transform-center-x="3.23436"
       inkscape:transform-center-y="-4.3275449" />
    <path
       sodipodi:nodetypes="cssssc"
       inkscape:connector-curvature="0"
       inkscape:original-d="m 357.29274,730.86872 c 0,0 1.19981,-0.48343 9.46917,-0.83951 14.18699,-0.61087 -4.34811,-11.87378 8.24436,-5.31074 1.41434,0.73714 14.80931,-3.20071 17.87515,-3.49835 2.86898,-0.27855 9.52142,3.46476 13.32374,5.70582 5.00424,2.94947 5.39861,-0.39399 5.39861,-0.39399"
       inkscape:path-effect="#path-effect4978"
       id="path4954"
       d="m 357.29274,730.86872 c 3.13829,0.73316 6.50882,0.43434 9.46917,-0.83951 3.00841,-1.29453 5.50639,-3.51356 8.24436,-5.31074 2.62234,-1.72128 5.511,-3.0734 8.57321,-3.75334 3.06222,-0.67993 6.30463,-0.67 9.30194,0.25499 2.31759,0.71523 4.43301,1.95033 6.56924,3.09894 2.13622,1.14861 4.35788,2.23406 6.7545,2.60688 1.79831,0.27975 3.65997,0.14388 5.39861,-0.39399"
       style="fill:none;stroke:#000000;stroke-width:2.83200002;stroke-linecap:butt;stroke-linejoin:miter;stroke-miterlimit:4;stroke-opacity:1;stroke-dasharray:none"
       inkscape:transform-center-x="3.7600024"
       inkscape:transform-center-y="-7.3569964" />
    <path
       style="fill:none;stroke:#000000;stroke-width:2.83200002;stroke-linecap:butt;stroke-linejoin:miter;stroke-miterlimit:4;stroke-opacity:1;stroke-dasharray:none"
       d="m 356.24146,727.2913 c 3.13828,0.73316 6.5088,0.43434 9.46915,-0.8395 3.00841,-1.29453 5.5064,-3.51355 8.24437,-5.31074 2.62234,-1.72129 5.511,-3.07341 8.57321,-3.75335 3.06221,-0.67994 6.30463,-0.67002 9.30194,0.25498 2.31759,0.71523 4.43301,1.95034 6.56924,3.09896 2.13623,1.14861 4.35789,2.23407 6.75451,2.60689 1.79831,0.27974 3.65997,0.14387 5.39861,-0.39401"
       id="path4956"
       inkscape:path-effect="#path-effect4980"
       inkscape:original-d="m 356.24146,727.2913 c 0,0 1.1998,-0.48342 9.46915,-0.8395 14.18701,-0.61089 -4.3481,-11.87379 8.24437,-5.31074 1.41435,0.73714 14.8093,-3.20072 17.87515,-3.49837 2.869,-0.27852 9.52143,3.46478 13.32375,5.70585 5.00423,2.94947 5.39861,-0.39401 5.39861,-0.39401"
       inkscape:connector-curvature="0"
       sodipodi:nodetypes="cssssc"
       inkscape:transform-center-x="4.8112777"
       inkscape:transform-center-y="-10.934415" />
    <path
       sodipodi:nodetypes="cssssc"
       inkscape:connector-curvature="0"
       inkscape:original-d="m 357.85966,725.3361 c 0,0 0.32207,-3.16698 8.59142,-3.52306 14.18699,-0.61088 -6.13984,-10.81245 6.45262,-4.2494 1.41435,0.73714 15.8626,0.0195 18.92845,-0.27809 2.86899,-0.27854 10.60491,1.32801 14.40723,3.56908 5.00425,2.94946 13.42523,3.72418 13.42523,3.72418"
       inkscape:path-effect="#path-effect4982"
       id="path4958"
       d="m 357.85966,725.3361 c 3.0444,-0.64541 5.97037,-1.84526 8.59142,-3.52306 2.17116,-1.38982 4.14146,-3.10742 6.45262,-4.2494 2.88708,-1.42655 6.17936,-1.88112 9.39757,-1.76554 3.21821,0.11558 6.38983,0.77746 9.53088,1.48745 4.82611,1.09088 9.62464,2.30097 14.40723,3.56908 4.48905,1.19028 8.96451,2.43178 13.42523,3.72418"
       style="fill:none;stroke:#000000;stroke-width:2.83200002;stroke-linecap:butt;stroke-linejoin:miter;stroke-miterlimit:4;stroke-opacity:1;stroke-dasharray:none"
       inkscape:transform-center-x="2.481831"
       inkscape:transform-center-y="-12.69384" />
    <path
       sodipodi:nodetypes="cc"
       inkscape:connector-curvature="0"
       inkscape:original-d="m 408.40129,735.29467 3.86643,1.75524"
       inkscape:path-effect="#path-effect4984"
       id="path4960"
       d="m 408.40129,735.29467 3.86643,1.75524"
       style="fill:none;stroke:#000000;stroke-width:2.83200002;stroke-linecap:butt;stroke-linejoin:miter;stroke-miterlimit:4;stroke-opacity:1;stroke-dasharray:none"
       inkscape:transform-center-x="-22.126252"
       inkscape:transform-center-y="2.9409838" />
    <path
       sodipodi:nodetypes="cc"
       style="fill:none;stroke:#000000;stroke-width:2.83200002;stroke-linecap:butt;stroke-linejoin:miter;stroke-miterlimit:4;stroke-opacity:1;stroke-dasharray:none"
       d="m 409.23409,738.92317 2.22712,1.36718"
       id="path4962"
       inkscape:path-effect="#path-effect4986"
       inkscape:original-d="m 409.23409,738.92317 2.22712,1.36718"
       inkscape:connector-curvature="0"
       inkscape:transform-center-x="-22.139396"
       inkscape:transform-center-y="6.3754519" />
    <path
       style="fill:#000000;stroke:#000000;stroke-width:2.83200026;stroke-linecap:butt;stroke-linejoin:miter;stroke-miterlimit:4;stroke-opacity:1;stroke-dasharray:none"
       d="m 350.46131,762.51915 11.22002,-16.92757 c 0.66321,-0.72238 1.58028,-1.20694 2.55077,-1.34776 0.97049,-0.14082 1.98747,0.0631 2.82864,0.5672 0.82076,0.49186 1.46891,1.26573 1.80913,2.16006 0.34023,0.89433 0.37033,1.90332 0.084,2.81634 l -10.66907,16.71797 -7.82352,-3.98624"
       id="path4988"
       inkscape:path-effect="#path-effect4990"
       inkscape:original-d="m 350.46131,762.51915 11.22002,-16.92757 c 0,0 3.81567,-1.70299 5.37941,-0.78056 1.52652,0.90047 1.89316,4.9764 1.89316,4.9764 l -10.66907,16.71797 z"
       inkscape:connector-curvature="0"
       sodipodi:nodetypes="ccsccc" />
    <path
       sodipodi:nodetypes="ccsccc"
       inkscape:connector-curvature="0"
       inkscape:original-d="m 360.98865,763.15675 11.22003,-16.92758 c 0,0 3.81567,-1.70299 5.37942,-0.78055 1.5265,0.90046 1.89316,4.9764 1.89316,4.9764 l -10.66907,16.71796 z"
       inkscape:path-effect="#path-effect4994"
       id="path4992"
       d="m 360.98865,763.15675 11.22003,-16.92758 c 0.66321,-0.72238 1.58029,-1.20694 2.55078,-1.34776 0.97049,-0.14081 1.98747,0.0631 2.82864,0.56721 0.82076,0.49186 1.4689,1.26574 1.80913,2.16006 0.34023,0.89433 0.37033,1.90332 0.084,2.81634 l -10.66907,16.71796 -7.82354,-3.98623"
       style="fill:#000000;stroke:#000000;stroke-width:2.83200026;stroke-linecap:butt;stroke-linejoin:miter;stroke-miterlimit:4;stroke-opacity:1;stroke-dasharray:none" />
    <path
       sodipodi:type="arc"
       style="fill:#ffffff;fill-opacity:1;stroke:#000000;stroke-width:2.42214561;stroke-linecap:round;stroke-linejoin:round;stroke-miterlimit:4;stroke-opacity:1;stroke-dasharray:none;stroke-dashoffset:0"
       id="path4996"
       sodipodi:cx="434.11307"
       sodipodi:cy="142.97235"
       sodipodi:rx="4.5456862"
       sodipodi:ry="4.5456862"
       d="m 438.65875,142.97235 c 0,2.51051 -2.03517,4.54569 -4.54568,4.54569 -2.51052,0 -4.54569,-2.03518 -4.54569,-4.54569 0,-2.51051 2.03517,-4.54569 4.54569,-4.54569 2.51051,0 4.54568,2.03518 4.54568,4.54569 z"
       transform="matrix(1.0908588,-0.41499345,0.41647494,1.094753,-178.73024,788.46836)" />
    <path
       sodipodi:type="arc"
       style="fill:#ffffff;fill-opacity:1;stroke:#000000;stroke-width:2.42214561;stroke-linecap:round;stroke-linejoin:round;stroke-miterlimit:4;stroke-opacity:1;stroke-dasharray:none;stroke-dashoffset:0"
       id="path4998"
       sodipodi:cx="433.41858"
       sodipodi:cy="143.72997"
       sodipodi:rx="0.25253814"
       sodipodi:ry="0.25253814"
       d="m 433.67112,143.72997 c 0,0.13947 -0.11307,0.25253 -0.25254,0.25253 -0.13947,0 -0.25254,-0.11306 -0.25254,-0.25253 0,-0.13948 0.11307,-0.25254 0.25254,-0.25254 0.13947,0 0.25254,0.11306 0.25254,0.25254 z"
       transform="matrix(1.0908588,-0.41499345,0.41647494,1.094753,-178.55993,788.08709)" />
    <path
       transform="matrix(1.0908588,-0.41499345,0.41647494,1.094753,-168.44113,787.83271)"
       d="m 438.65875,142.97235 c 0,2.51051 -2.03517,4.54569 -4.54568,4.54569 -2.51052,0 -4.54569,-2.03518 -4.54569,-4.54569 0,-2.51051 2.03517,-4.54569 4.54569,-4.54569 2.51051,0 4.54568,2.03518 4.54568,4.54569 z"
       sodipodi:ry="4.5456862"
       sodipodi:rx="4.5456862"
       sodipodi:cy="142.97235"
       sodipodi:cx="434.11307"
       id="path5000"
       style="fill:#ffffff;fill-opacity:1;stroke:#000000;stroke-width:2.42214561;stroke-linecap:round;stroke-linejoin:round;stroke-miterlimit:4;stroke-opacity:1;stroke-dasharray:none;stroke-dashoffset:0"
       sodipodi:type="arc" />
    <path
       transform="matrix(1.0908588,-0.41499345,0.41647494,1.094753,-168.19569,787.02725)"
       d="m 433.67112,143.72997 c 0,0.13947 -0.11307,0.25253 -0.25254,0.25253 -0.13947,0 -0.25254,-0.11306 -0.25254,-0.25253 0,-0.13948 0.11307,-0.25254 0.25254,-0.25254 0.13947,0 0.25254,0.11306 0.25254,0.25254 z"
       sodipodi:ry="0.25253814"
       sodipodi:rx="0.25253814"
       sodipodi:cy="143.72997"
       sodipodi:cx="433.41858"
       id="path5002"
       style="fill:#ffffff;fill-opacity:1;stroke:#000000;stroke-width:2.42214561;stroke-linecap:round;stroke-linejoin:round;stroke-miterlimit:4;stroke-opacity:1;stroke-dasharray:none;stroke-dashoffset:0"
       sodipodi:type="arc" />
    <path
       style="fill:none;stroke:#000000;stroke-width:2.83200002;stroke-linecap:round;stroke-linejoin:miter;stroke-miterlimit:4;stroke-opacity:1;stroke-dasharray:none"
       d="m 466.87905,614.56727 c -4.26645,11.14499 -6.83055,22.93987 -7.57613,34.85027 -0.9725,15.53543 1.13064,31.08807 3.53553,46.46701 2.95733,18.91169 6.38604,38.14552 3.53554,57.07361 -0.66966,4.44671 -1.68384,8.84149 -3.03046,13.13198"
       id="path5004"
       inkscape:path-effect="#path-effect5006"
       inkscape:original-d="m 466.87905,614.56727 c 0,0 -6.7558,22.99052 -7.57613,34.85027 -1.07191,15.49675 2.46603,30.9701 3.53553,46.46701 1.31235,19.01578 5.10564,38.07739 3.53554,57.07361 -0.37005,4.47711 -3.03046,13.13198 -3.03046,13.13198"
       inkscape:connector-curvature="0"
       sodipodi:nodetypes="csssc" />
    <path
       style="fill:#000000;stroke:none"
       d="m 459.00704,645.09593 c -11.4356,5.81847 -23.09636,11.19438 -34.94742,16.11168 -14.47196,6.00477 -29.22775,11.32546 -44.2016,15.93836 5.24124,-0.32711 10.49557,-0.44451 15.74619,-0.35181 4.81794,0.0851 9.63275,0.34699 14.43148,0.7851 -3.57094,2.76036 -7.47923,5.08388 -11.61013,6.90235 -5.04445,2.22062 -10.42063,3.68587 -15.89423,4.33188 9.05632,0.1861 18.12497,-0.23003 27.12619,-1.24475 10.66119,-1.20185 21.24792,-3.24916 31.46266,-6.53009 6.58708,-2.11574 13.01021,-4.74171 19.19289,-7.84663"
       id="path5008"
       inkscape:path-effect="#path-effect5010"
       inkscape:original-d="m 459.00704,645.09593 c 0,0 -24.54517,13.36342 -34.94742,16.11168 -15.84182,4.18538 -44.2016,15.93836 -44.2016,15.93836 0,0 10.52042,-1.62978 15.74619,-0.35181 4.09156,1.0006 14.43148,0.7851 14.43148,0.7851 0,0 -8.37843,5.37803 -11.61013,6.90235 -4.96656,2.34261 -15.89423,4.33188 -15.89423,4.33188 0,0 18.34358,0.62778 27.12619,-1.24475 10.88362,-2.32047 20.85351,-3.17097 31.46266,-6.53009 6.3961,-2.02516 19.19289,-7.84663 19.19289,-7.84663"
       inkscape:connector-curvature="0"
       sodipodi:nodetypes="cscscscssc" />
    <text
       xml:space="preserve"
       style="font-size:18.37778282px;font-style:normal;font-weight:normal;line-height:125%;letter-spacing:0px;word-spacing:0px;fill:#000000;fill-opacity:1;stroke:none;font-family:Sans"
       x="142.41463"
       y="789.45258"
       id="text5012"
       sodipodi:linespacing="125%"
       transform="matrix(0.92904227,-0.3699736,0.3699736,0.92904227,0,0)"><tspan
         sodipodi:role="line"
         id="tspan5014"
         x="142.41463"
         y="789.45258"
         style="fill:#ffffff">Eve</tspan></text>
  </g>
</svg>
